<svg width="300" height="300" viewBox="0 0 300 300" fill="none" xmlns="http://www.w3.org/2000/svg">
<path d="M100 250.258C44.7715 250.258 -6.78204e-05 205.429 -6.54063e-05 150.129C-6.29922e-05 94.8294 44.7715 50 100 50C155.228 50 200 94.8294 200 150.129C200 205.429 155.228 250.258 100 250.258ZM100 120.084C83.4277 120.084 69.9932 133.536 69.9932 150.129C69.9932 166.723 83.4277 180.175 100 180.175C116.572 180.175 130.007 166.723 130.007 150.129C130.007 133.536 116.572 120.084 100 120.084Z" fill="#00CC99"/>
<path d="M300 150.129C300 205.429 255.228 250.258 200 250.258C144.772 250.258 100 205.429 100 150.129C100 94.8292 144.772 50 200 50C255.228 50 300 94.8292 300 150.129ZM169.993 150.129C169.993 166.723 183.428 180.174 200 180.174C216.572 180.174 230.007 166.723 230.007 150.129C230.007 133.535 216.572 120.083 200 120.083C183.428 120.083 169.993 133.535 169.993 150.129Z" fill="#CC0033"/>
<path fill-rule="evenodd" clip-rule="evenodd" d="M150.099 63.0884C128.552 75.5682 112.088 95.8663 104.575 120.108C119.024 122.273 130.105 134.751 130.105 149.822C130.105 164.892 119.024 177.371 104.575 179.535C112.088 203.777 128.553 224.075 150.099 236.555C171.645 224.075 188.109 203.777 195.622 179.535C181.173 177.371 170.092 164.892 170.092 149.822C170.092 134.751 181.173 122.273 195.622 120.108C188.109 95.8663 171.645 75.5682 150.099 63.0884Z" fill="#00CC99" fill-opacity="0.25"/>
</svg>
