<svg width="388" height="259" viewBox="0 0 388 259" fill="none" xmlns="http://www.w3.org/2000/svg">
<path d="M129.333 259C57.9045 259 -8.77559e-06 201.021 -5.65334e-06 129.5C-2.53109e-06 57.9791 57.9045 -8.7869e-06 129.333 -5.66062e-06C200.762 -2.53435e-06 258.667 57.9791 258.667 129.5C258.667 201.021 200.762 259 129.333 259ZM129.333 90.6412C107.9 90.6412 90.5246 108.039 90.5246 129.5C90.5246 150.961 107.9 168.359 129.333 168.359C150.767 168.359 168.142 150.961 168.142 129.5C168.142 108.039 150.767 90.6412 129.333 90.6412Z" fill="#00CC99"/>
<path d="M388 129.5C388 201.021 330.095 259 258.667 259C187.238 259 129.333 201.021 129.333 129.5C129.333 57.9791 187.238 0 258.667 0C330.095 0 388 57.9791 388 129.5ZM219.858 129.5C219.858 150.961 237.233 168.359 258.667 168.359C280.1 168.359 297.475 150.961 297.475 129.5C297.475 108.039 280.1 90.6412 258.667 90.6412C237.233 90.6412 219.858 108.039 219.858 129.5Z" fill="#CC0033"/>
<path fill-rule="evenodd" clip-rule="evenodd" d="M194.128 16.9282C166.261 33.0688 144.967 59.321 135.251 90.6742C153.938 93.473 168.27 109.612 168.27 129.103C168.27 148.594 153.938 164.734 135.251 167.533C144.967 198.886 166.261 225.138 194.128 241.279C221.994 225.138 243.288 198.886 253.004 167.533C234.317 164.734 219.985 148.594 219.985 129.103C219.985 109.612 234.317 93.473 253.004 90.6742C243.288 59.321 221.994 33.0688 194.128 16.9282Z" fill="#00CC99" fill-opacity="0.25"/>
</svg>
