<svg width="249" height="48" viewBox="0 0 249 48" fill="none" xmlns="http://www.w3.org/2000/svg">
<path d="M4.272 9.544H6.192L17.856 30.184L29.472 9.544H31.248V42.952H4.272V9.544ZM6.048 41.224H29.472V13.144L18.672 32.152H16.992L6.048 12.856V41.224ZM78.0225 18.04V9.592H99.6225V18.04H89.6865V34.552H99.6225V43H78.0225V34.552H87.9585V18.04H78.0225ZM160.365 23.512L174.285 43H147.405V9.592H174.285L160.365 23.512ZM159.117 24.76L149.181 34.696V41.224H170.877L159.117 24.76ZM218.948 9.592H243.284V18.04H227.684V22.264H240.644V30.28H227.684V34.552H243.284V43H218.948V9.592Z" fill="#00CC99" fill-opacity="0.75"/>
</svg>
