<svg width="65" height="65" viewBox="0 0 65 65" fill="inherit" xmlns="http://www.w3.org/2000/svg">
<path fill-rule="evenodd" clip-rule="evenodd" d="M33.4522 51.0476C32.8429 50.4382 32.5007 49.6117 32.5007 48.7499C32.5007 47.8881 32.8429 47.0616 33.4522 46.4521L47.4045 32.4999L33.4522 18.5476C33.1418 18.2478 32.8942 17.8892 32.7239 17.4927C32.5535 17.0962 32.4639 16.6697 32.4601 16.2382C32.4564 15.8067 32.5386 15.3787 32.702 14.9793C32.8655 14.5799 33.1068 14.217 33.4119 13.9119C33.7171 13.6067 34.0799 13.3654 34.4794 13.202C34.8788 13.0386 35.3067 12.9563 35.7383 12.9601C36.1698 12.9638 36.5963 13.0535 36.9928 13.2238C37.3893 13.3941 37.7479 13.6417 38.0477 13.9521L54.2977 30.2021C54.907 30.8116 55.2493 31.6381 55.2493 32.4999C55.2493 33.3617 54.907 34.1882 54.2977 34.7976L38.0477 51.0476C37.4382 51.6569 36.6117 51.9992 35.75 51.9992C34.8882 51.9992 34.0617 51.6569 33.4522 51.0476Z" fill="inherit"/>
<path fill-rule="evenodd" clip-rule="evenodd" d="M13.9523 51.0479C13.343 50.4384 13.0007 49.6119 13.0007 48.7501C13.0007 47.8883 13.343 47.0618 13.9523 46.4524L27.9045 32.5001L13.9523 18.5479C13.3602 17.9349 13.0327 17.1139 13.0401 16.2618C13.0475 15.4097 13.3893 14.5945 13.9918 13.9919C14.5944 13.3894 15.4096 13.0476 16.2617 13.0402C17.1138 13.0328 17.9348 13.3603 18.5478 13.9524L34.7978 30.2024C35.407 30.8118 35.7493 31.6383 35.7493 32.5001C35.7493 33.3619 35.407 34.1884 34.7978 34.7979L18.5478 51.0479C17.9383 51.6571 17.1118 51.9994 16.25 51.9994C15.3882 51.9994 14.5617 51.6571 13.9523 51.0479Z" fill="inherit"/>
</svg>
