<svg width="77" height="77" viewBox="0 0 77 77" fill="inherit" xmlns="http://www.w3.org/2000/svg">
<path d="M41.8236 16C40.9759 16 40.163 16.3367 39.5636 16.9361C38.9642 17.5355 38.6275 18.3484 38.6275 19.1961C38.6275 20.0437 38.9642 20.8567 39.5636 21.456C40.163 22.0554 40.9759 22.3921 41.8236 22.3921H50.0886L29.9757 42.505C29.6705 42.7999 29.427 43.1525 29.2595 43.5425C29.092 43.9324 29.0038 44.3518 29.0001 44.7762C28.9964 45.2005 29.0773 45.6214 29.238 46.0142C29.3987 46.407 29.636 46.7638 29.9361 47.0639C30.2362 47.364 30.593 47.6013 30.9858 47.762C31.3786 47.9227 31.7995 48.0036 32.2238 47.9999C32.6482 47.9962 33.0676 47.908 33.4575 47.7405C33.8475 47.573 34.2001 47.3295 34.495 47.0243L54.6079 26.9114V35.1764C54.6079 36.0241 54.9446 36.837 55.544 37.4364C56.1433 38.0358 56.9563 38.3725 57.8039 38.3725C58.6516 38.3725 59.4645 38.0358 60.0639 37.4364C60.6633 36.837 61 36.0241 61 35.1764V19.1961C61 18.3484 60.6633 17.5355 60.0639 16.9361C59.4645 16.3367 58.6516 16 57.8039 16H41.8236Z" fill="inherit"/>
<path d="M22.5 22C20.7761 22 19.1228 22.6848 17.9038 23.9038C16.6848 25.1228 16 26.7761 16 28.5V54.5C16 56.2239 16.6848 57.8772 17.9038 59.0962C19.1228 60.3152 20.7761 61 22.5 61H48.5C50.2239 61 51.8772 60.3152 53.0962 59.0962C54.3152 57.8772 55 56.2239 55 54.5V44.75C55 43.888 54.6576 43.0614 54.0481 42.4519C53.4386 41.8424 52.612 41.5 51.75 41.5C50.888 41.5 50.0614 41.8424 49.4519 42.4519C48.8424 43.0614 48.5 43.888 48.5 44.75V54.5H22.5V28.5H32.25C33.112 28.5 33.9386 28.1576 34.5481 27.5481C35.1576 26.9386 35.5 26.112 35.5 25.25C35.5 24.388 35.1576 23.5614 34.5481 22.9519C33.9386 22.3424 33.112 22 32.25 22H22.5Z" fill="inherit"/>
</svg>
