<svg width="100" height="100" viewBox="0 0 100 100" fill="inherit" xmlns="http://www.w3.org/2000/svg">
<g clip-path="url(#clip0)">
<path d="M15.4883 51.0351C14.3555 51.0351 13.3008 50.3123 12.9492 49.1795C10.0781 40.2146 9.66798 24.3748 15.8203 17.1873C14.4531 11.992 15.2149 4.96073 17.7343 1.1912C18.2616 0.409947 19.121 -0.0392721 20.078 -0.000209629C27.246 0.312388 31.914 3.30057 36.0155 6.03495C41.8554 4.51161 47.539 3.98417 54.2773 4.35526C55.9374 4.45292 57.578 4.82401 59.0234 5.15604C60.3906 5.46854 61.7968 5.80067 62.6171 5.72255C63.3593 5.64442 64.6874 4.74598 65.7616 4.0038C66.7577 3.3202 67.8124 2.61708 68.9062 2.12879C72.0312 0.761607 74.8437 0.136607 78.6327 -0.000111972C80.0976 -0.0391745 81.3476 1.09354 81.4061 2.57801C81.4646 4.06249 80.3123 5.29276 78.828 5.33192C75.6834 5.44911 73.5741 5.89833 71.0545 7.01161C70.41 7.30458 69.6092 7.83192 68.7694 8.41786C67.1092 9.55067 65.2147 10.8397 63.1053 11.035C61.4061 11.1913 59.6483 10.8007 57.7928 10.3515C56.5037 10.0585 55.1561 9.74598 53.9647 9.66786C47.3826 9.29676 41.9139 9.86317 36.2498 11.4843C35.5076 11.6991 34.7069 11.5819 34.0428 11.1327L33.3787 10.6835C29.8045 8.3203 26.4258 6.05467 21.4844 5.44921C20.2539 8.59374 20.0978 13.8086 21.3281 16.8945C21.7579 17.9492 21.4454 19.1796 20.5861 19.9023C15.7618 24.0039 15.1564 38.5156 18.0275 47.5195C18.4767 48.9258 17.6954 50.4297 16.2892 50.8789C16.0157 50.9961 15.7423 51.0351 15.4884 51.0351H15.4883ZM35.8007 77.4022C35.6054 77.4022 35.4099 77.3826 35.2146 77.3436C33.7693 77.0311 32.8708 75.6053 33.1833 74.16L33.3591 73.3982C34.1794 69.6873 34.9411 66.699 35.8396 64.4725C24.8825 62.1873 16.8943 56.9725 13.1052 49.5896C12.4411 48.281 12.9489 46.66 14.2576 45.9959C15.5663 45.3318 17.1873 45.8397 17.8514 47.1484C21.2694 53.8086 29.3162 58.3203 40.5272 59.8633C41.6014 60.0195 42.4803 60.8008 42.7537 61.8358C43.0272 62.8905 42.6365 64.0038 41.7576 64.6483C41.1912 65.1562 40.1561 67.2851 38.574 74.5312L38.3983 75.3124C38.1248 76.5429 37.0311 77.4022 35.8006 77.4022H35.8007ZM30.8785 96.9529C30.7028 96.9529 30.5465 96.9334 30.3707 96.8943C28.9254 96.6014 27.9684 95.2537 28.2613 93.8084C28.7496 91.3279 30.4879 90.2928 31.5231 89.6873C32.2262 89.2772 32.441 89.1209 32.5582 88.8475C33.1637 87.5584 33.0074 84.2186 32.8707 81.5428C32.8121 80.41 32.7536 79.2576 32.7341 78.1443C26.5427 79.2186 19.8239 79.5506 16.2692 73.6717C15.566 72.4998 15.1168 71.3084 14.7067 70.2342C14.2379 69.0232 13.8473 67.9686 13.2028 67.1873C12.2653 66.0545 12.441 64.3748 13.5738 63.4373C14.7067 62.4998 16.3863 62.6561 17.3238 63.8084C18.5153 65.2732 19.1403 66.9139 19.6871 68.3592C20.0387 69.2967 20.3707 70.1756 20.8199 70.9178C22.734 74.0818 26.9136 73.8865 34.9606 72.2654C35.8004 72.0896 36.6597 72.3436 37.2848 72.91C37.9098 73.4959 38.2223 74.3357 38.1246 75.1755C37.9293 76.8747 38.0465 79.1013 38.1442 81.2497C38.3395 85.0192 38.5153 88.5739 37.3239 91.0935C36.4645 92.9099 35.0778 93.7302 34.1598 94.2575C33.9059 94.4138 33.5153 94.6286 33.4371 94.7263C33.2613 96.0349 32.1481 96.9529 30.8785 96.9529ZM69.7066 96.4451C68.8277 96.4451 67.9878 96.0157 67.4605 95.2345C67.2456 94.8829 66.9331 94.6681 66.3863 94.297C65.5269 93.6915 64.355 92.8712 63.4761 91.172C61.8941 88.0665 62.148 83.5548 62.4019 78.7892C62.558 75.8595 62.7142 72.8321 62.4017 70.4493C62.1282 68.4376 61.4251 67.5392 60.4486 66.2892C59.8236 65.4688 59.1009 64.5508 58.5345 63.3397C58.1634 62.539 58.222 61.621 58.6517 60.8593C59.1009 60.0976 59.8822 59.6093 60.7611 59.5507C70.7806 58.8085 78.6908 54.0819 82.4993 46.6015C83.1634 45.2929 84.765 44.7655 86.0931 45.4296C87.4017 46.0936 87.929 47.6952 87.265 49.0233C83.2025 57.0507 75.4486 62.4608 65.6439 64.3163C66.5228 65.6054 67.3822 67.246 67.7142 69.7655C68.1048 72.6366 67.929 75.9179 67.7533 79.0819C67.5579 82.7538 67.3431 86.914 68.2612 88.7499C68.4955 89.2187 68.7885 89.4335 69.4526 89.9022C70.1752 90.3905 71.1518 91.0741 71.9526 92.3045C72.7533 93.5349 72.4019 95.1951 71.1715 95.9959C70.7223 96.3084 70.2145 96.4451 69.7067 96.4451H69.7066ZM84.8824 50.4885C84.648 50.4885 84.3939 50.4494 84.1595 50.3909C82.7337 49.9808 81.9134 48.5159 82.3236 47.0901C85.2728 36.719 83.2611 23.2425 78.1048 18.8479C77.2651 18.1253 76.9525 16.9729 77.3236 15.9378C78.5736 12.3636 77.7337 6.99247 76.308 3.75028C75.7221 2.40262 76.3276 0.820591 77.6752 0.234654C79.0229 -0.351284 80.6049 0.254185 81.1908 1.60184C82.8315 5.31278 83.9057 11.1526 82.8315 16.0159C89.1987 23.0472 90.4487 38.0472 87.4604 48.555C87.1088 49.7268 86.0542 50.4886 84.8824 50.4885ZM60.8979 100.039C60.4096 100.039 59.9018 99.9026 59.4526 99.6097C58.9643 99.2972 57.4994 98.3597 54.7846 94.1409C53.5541 92.2269 52.6557 82.6956 52.1089 65.7815C52.0698 64.3167 53.2222 63.0668 54.687 63.0276C56.1519 62.9885 57.4019 64.1409 57.4409 65.6058C57.7925 76.68 58.6128 89.2386 59.355 91.387C61.3472 94.4729 62.2847 95.098 62.3238 95.1175C63.5542 95.9183 63.9252 97.5589 63.1244 98.8089C62.6362 99.6097 61.7768 100.039 60.8979 100.039ZM40.6439 100.039C39.765 100.039 38.9056 99.6097 38.3978 98.8089C37.597 97.5784 37.9681 95.9183 39.1986 95.1175C39.2376 95.098 40.1751 94.4729 42.1673 91.387C42.9095 89.2581 43.7103 76.68 44.0814 65.6058C44.1204 64.1409 45.3704 62.969 46.8353 63.0276C48.3001 63.0667 49.472 64.3167 49.4134 65.7815C48.8665 82.6956 47.9681 92.2464 46.7376 94.1409C44.0228 98.3401 42.5579 99.2972 42.0697 99.6097C41.64 99.9026 41.1322 100.039 40.6439 100.039Z" fill="inherit"/>
</g>
<defs>
<clipPath id="clip0">
<rect width="100" height="100" fill="white"/>
</clipPath>
</defs>
</svg>
