<svg width="100" height="100" viewBox="0 0 100 100" fill="inherit" xmlns="http://www.w3.org/2000/svg">
<g clip-path="url(#clip0)">
<path d="M97.4409 97.8935H77.1259C75.6889 97.8935 74.5276 96.7322 74.5276 95.2952V62.5787C74.5276 51.3582 68.7402 51.3582 66.8307 51.3582C61.6929 51.3582 59.5078 55.4134 58.7991 57.1654C58.4645 57.9529 58.307 59.2914 58.307 61.1616V95.3151C58.307 96.7521 57.1456 97.9134 55.7087 97.9134H35.3741C34.6851 97.9134 34.0158 97.6379 33.5237 97.1459C33.0316 96.6539 32.756 95.9842 32.7756 95.2953C32.7756 94.7442 33.0512 39.882 32.7756 34.2718C32.7363 33.5631 32.9921 32.8741 33.4843 32.3623C33.9765 31.8505 34.6457 31.5552 35.374 31.5552H55.7087C57.1456 31.5552 58.3071 32.7165 58.3071 34.1535V35.6889C61.7323 32.6378 66.6732 30.118 74.0354 30.118C90.3149 30.118 100.039 41.3778 100.039 60.2361V95.2952C100.039 96.7322 98.8779 97.8935 97.4409 97.8935ZM79.7243 92.6968L94.8622 92.6964V60.2358C94.8622 44.3893 87.2835 35.3146 74.0551 35.3146C65.2165 35.3146 60.9252 39.7241 58.2283 43.7595C57.9134 44.8225 56.9094 45.61 55.7283 45.61H55.5906C54.6456 45.61 53.7795 45.0981 53.3269 44.2715C52.9726 43.6217 52.8938 42.8737 53.13 42.1847V36.7321H38.0316C38.1694 47.5786 38.0316 82.6771 37.9922 92.6771H53.1103V61.1416C53.1103 58.5235 53.3859 56.6338 53.9764 55.1968C56.2599 49.5471 61.0629 46.1417 66.8111 46.1417C75 46.1417 79.7046 52.126 79.7046 62.559V92.6967H79.7245L79.7243 92.6968ZM24.1339 97.8931H3.79925C2.36224 97.8931 1.20092 96.7318 1.20092 95.2948V34.1533C1.20092 32.7163 2.36224 31.5549 3.79925 31.5549H24.1339C25.5709 31.5549 26.7323 32.7163 26.7323 34.1532V95.2949C26.7323 96.7319 25.5709 97.8933 24.1339 97.8933V97.8931ZM6.39779 92.6966H21.5355V36.7515H6.39789V92.6964L6.39779 92.6966ZM13.9764 28.4051L13.8385 28.4051C5.8267 28.4051 -6.10352e-05 22.8539 -6.10352e-05 15.2161C-6.10352e-05 7.59802 5.92513 2.04675 14.1141 2.04675C22.1653 2.04675 27.9134 7.4404 28.0709 15.157C28.0709 22.8539 22.1457 28.4051 13.9764 28.4051V28.4051ZM14.1141 7.26335C8.77943 7.26335 5.19681 10.472 5.19681 15.2359C5.19681 19.9209 8.74017 23.2083 13.8386 23.2083H13.9763C19.2913 23.2083 22.874 19.9996 22.874 15.2358C22.7755 10.413 19.3307 7.26335 14.1141 7.26335Z" fill="inherit"/>
</g>
<defs>
<clipPath id="clip0">
<rect width="100" height="100" fill="white"/>
</clipPath>
</defs>
</svg>
