<svg width="100" height="100" viewBox="0 0 100 100" fill="inherit" xmlns="http://www.w3.org/2000/svg">
<g clip-path="url(#clip0)">
<path d="M66.8359 15.4969C72 15.4969 76.6622 17.6098 79.9466 21.002C84.0325 20.2114 87.8841 18.7708 91.3451 16.7754C90.0061 20.8412 87.1576 24.252 83.453 26.4098C87.078 25.9833 90.5483 25.052 93.7686 23.6598C91.3546 27.1504 88.3155 30.2239 84.8061 32.6801C84.839 33.4254 84.8578 34.1786 84.8578 34.9285C84.8578 57.9488 66.7906 84.5002 33.7531 84.5002C23.6125 84.5002 14.1672 81.6066 6.22352 76.666C7.64461 76.8312 9.07411 76.9136 10.5048 76.9128C18.9188 76.9128 26.6672 74.1299 32.8156 69.4518C24.9516 69.3174 18.314 64.2752 16.0375 57.3581C17.1525 57.5669 18.2844 57.6721 19.4187 57.6721C21.0515 57.6721 22.6422 57.4612 24.1453 57.0612C15.9297 55.4659 9.73748 48.4237 9.73748 39.9782V39.7548C12.1609 41.0611 14.9281 41.8455 17.8765 41.9361C13.0547 38.8079 9.88436 33.483 9.88436 27.4375C9.88436 24.2422 10.772 21.2485 12.3173 18.6844C21.1735 29.2188 34.4079 36.1563 49.3376 36.886C49.0297 35.614 48.8704 34.2704 48.8704 32.9188C48.8704 23.2954 56.9125 15.4969 66.8359 15.4969ZM93.7685 23.663H93.7841H93.7685ZM66.8356 9.24731C54.5638 9.24731 44.3969 18.213 42.8311 29.7974C32.7905 27.7802 23.6593 22.4646 17.0983 14.6662C16.5118 13.9685 15.7798 13.4075 14.9535 13.0226C14.1273 12.6377 13.2269 12.4382 12.3154 12.4381C12.1517 12.4382 11.9881 12.4444 11.8249 12.4569C10.8342 12.5362 9.87665 12.8503 9.03139 13.373C8.18612 13.8958 7.47744 14.6122 6.96395 15.4631C4.785 19.0786 3.63374 23.22 3.63416 27.4413C3.63416 30.2584 4.14032 33.0022 5.09979 35.5678C4.07791 36.7038 3.48885 38.1897 3.48885 39.7585V39.9819C3.48885 46.1039 5.90916 51.785 9.92792 56.0428C9.69666 57.1147 9.74823 58.2366 10.1014 59.3116C11.4874 63.5287 14.0108 67.1631 17.2827 69.9317C15.0857 70.4208 12.8186 70.6677 10.5045 70.6677C9.28104 70.6677 8.09042 70.6005 6.96385 70.4629C6.71385 70.4317 6.46698 70.4208 6.21854 70.4208C3.59354 70.4208 1.21073 72.0754 0.326352 74.5989C-0.643961 77.3645 0.432699 80.4301 2.9201 81.9786C12.1515 87.7224 22.8139 90.7551 33.7514 90.7551C69.3014 90.7551 90.6857 62.9254 91.1014 35.7411C94.0185 33.3276 96.5956 30.5303 98.7623 27.4254C99.5851 26.3451 100.03 25.0241 100.028 23.6661C100.028 21.5395 98.964 19.6598 97.3436 18.53C98.0452 16.1253 97.2451 13.5222 95.292 11.9316C94.1514 11.0035 92.7529 10.5316 91.3467 10.5316C90.2506 10.5306 89.1737 10.8189 88.2248 11.3675C86.1592 12.5583 83.9498 13.5004 81.6232 14.1787C77.4138 11.0115 72.195 9.24741 66.8356 9.24731Z" fill="inherit"/>
</g>
<defs>
<clipPath id="clip0">
<rect width="100" height="100" fill="white"/>
</clipPath>
</defs>
</svg>
